<svg version="1.1" id="Layer_1" xmlns="http://www.w3.org/2000/svg" xmlns:xlink="http://www.w3.org/1999/xlink" x="0px" y="0px"
	 width="100%" viewBox="0 0 1600 900" enable-background="new 0 0 1600 900" xml:space="preserve">
<path fill="transparent" opacity="1.000000" stroke="none" 
	d="
M1045.000000,901.000000 
	C696.666687,901.000000 348.833344,901.000000 1.000000,901.000000 
	C1.000000,601.000000 1.000000,301.000000 1.000000,1.000000 
	C534.333313,1.000000 1067.666626,1.000000 1601.000000,1.000000 
	C1601.000000,301.000000 1601.000000,601.000000 1601.000000,901.000000 
	C1415.833374,901.000000 1230.666626,901.000000 1045.000000,901.000000 
M952.504028,491.001251 
	C946.048523,491.333282 939.595764,491.876160 933.136963,491.961517 
	C901.851929,492.375061 870.564636,492.610931 839.279663,493.028198 
	C827.488342,493.185455 815.697388,493.561462 803.913269,494.018738 
	C789.496521,494.578217 775.083252,495.256256 760.675415,496.013519 
	C743.135193,496.935486 725.600708,497.967041 708.066528,499.000061 
	C691.694946,499.964600 675.328003,501.008881 658.957275,501.988922 
	C641.922241,503.008759 624.889832,504.085571 607.847473,504.966400 
	C592.441467,505.762665 577.027527,506.444244 561.609863,506.961975 
	C546.993042,507.452759 532.365662,507.615753 517.745544,508.019928 
	C509.952728,508.235352 502.165588,508.655487 494.375916,508.984436 
	C478.463837,509.656311 462.555969,510.464081 446.638275,510.955109 
	C435.519684,511.298126 425.655518,517.652405 421.690308,527.726990 
	C418.945221,534.701599 419.356781,541.626221 423.141724,548.548157 
	C417.571594,551.826721 412.363953,554.709229 407.359650,557.909668 
	C404.589813,559.681091 401.653381,561.585144 399.660461,564.113770 
	C387.713837,579.271790 394.741272,600.575195 413.276031,606.060608 
	C414.241791,606.346375 415.059814,607.131409 416.185791,607.833069 
	C415.109924,609.111145 414.414551,610.019287 413.635956,610.849426 
	C406.527130,618.428711 404.773102,629.510864 409.269897,638.555481 
	C414.036377,648.142578 423.876129,653.682373 434.614502,651.931091 
	C440.579803,650.958252 446.240448,648.191284 452.195984,647.069397 
	C466.484467,644.377625 480.861237,642.151001 495.211090,639.789673 
	C517.220032,636.167908 539.240845,632.617981 561.248169,628.986206 
	C580.161560,625.864990 599.032532,622.471375 617.980042,619.576355 
	C632.182495,617.406372 646.429810,615.034363 660.741638,614.196838 
	C679.983093,613.070862 699.306519,613.365784 718.593628,612.993652 
	C733.383179,612.708313 748.171875,612.033691 762.959595,612.071228 
	C784.581238,612.126038 806.200806,612.744812 827.822754,612.976990 
	C865.107178,613.377258 902.392151,613.848694 939.677917,613.957092 
	C996.168457,614.121216 1052.660034,613.927368 1109.150757,614.046021 
	C1125.272949,614.079895 1141.394287,614.656067 1157.515015,615.027832 
	C1158.822876,615.058044 1160.122803,615.617432 1161.426392,615.617859 
	C1170.812866,615.620972 1180.404297,617.938354 1189.482666,613.964355 
	C1207.292358,606.168274 1207.982178,583.173035 1197.516235,573.970520 
	C1195.849121,572.504517 1194.460205,570.721985 1192.702881,568.827515 
	C1194.820190,567.685669 1196.290283,566.925415 1197.730103,566.111572 
	C1213.609863,557.136536 1214.346436,533.939453 1199.330322,523.530334 
	C1190.299683,517.270264 1180.520508,519.624329 1170.940308,520.306030 
	C1164.973389,520.730591 1164.552124,521.247498 1165.092041,515.122314 
	C1166.369873,500.629089 1154.696167,487.629883 1137.590332,487.927734 
	C1104.308960,488.507141 1071.019409,488.610107 1037.734863,489.027344 
	C1025.610229,489.179321 1013.490784,489.703430 1001.367310,489.987640 
	C985.413208,490.361694 969.457458,490.666534 952.504028,491.001251 
M714.014709,354.511230 
	C704.097229,337.607574 684.392944,336.415070 672.879944,352.457886 
	C669.484619,357.189026 667.016907,362.992950 665.612976,368.673248 
	C660.432251,389.634399 655.701904,410.712830 651.202271,431.832367 
	C650.040527,437.285095 649.754639,443.085663 650.104858,448.661224 
	C650.619324,456.852936 656.845154,461.686951 665.971191,462.013123 
	C675.372375,462.349121 680.545471,458.637482 682.215454,450.154236 
	C683.017700,446.078369 683.435364,441.927460 684.211365,437.845551 
	C685.052002,433.423676 687.402466,430.768219 692.372070,430.841187 
	C698.355347,430.928986 704.357849,430.847870 710.326294,430.451874 
	C715.374329,430.116943 717.974792,432.721161 719.703430,436.928223 
	C721.406494,441.072906 722.863892,445.357208 724.976196,449.286102 
	C728.228271,455.334930 733.731934,457.534821 739.092407,455.491699 
	C747.259155,452.379028 751.061157,444.827240 748.183716,436.593384 
	C746.104919,430.644928 743.507385,424.875061 741.075012,419.053253 
	C732.176697,397.755249 723.250671,376.468872 714.014709,354.511230 
M448.150085,485.357605 
	C452.824219,490.720032 457.847748,490.497803 460.877930,483.773285 
	C463.205475,478.608154 464.720093,472.625763 464.806152,466.979553 
	C465.179138,442.505798 465.017517,418.020630 464.733887,393.543274 
	C464.684296,389.265381 465.495178,387.452942 470.046265,386.649017 
	C477.194580,385.386322 484.497162,383.863434 491.115356,381.013245 
	C499.825134,377.262299 499.885529,369.973358 491.937164,364.710754 
	C490.559265,363.798462 489.070679,362.750519 487.507629,362.473175 
	C480.679321,361.261719 473.832672,359.917877 466.935394,359.427765 
	C463.352600,359.173218 461.487854,358.136963 460.483551,354.793762 
	C458.714233,348.903931 456.987762,342.978485 454.756622,337.257782 
	C453.120483,333.062744 451.904938,327.085724 446.292511,327.444427 
	C440.824585,327.793823 438.204193,333.119446 437.036499,338.055725 
	C435.667328,343.843750 435.004578,349.829468 434.451538,355.768158 
	C434.139130,359.123169 433.256104,361.289154 429.673431,362.222870 
	C423.904083,363.726440 418.174377,365.454163 412.560211,367.457794 
	C408.137909,369.036072 405.124298,372.420624 405.367279,377.234283 
	C405.617981,382.200317 409.402435,384.842133 413.861420,385.867767 
	C418.382477,386.907684 423.047760,387.521362 427.681396,387.802521 
	C430.958435,388.001343 432.588593,389.397064 433.106323,392.430359 
	C433.441681,394.395172 433.783905,396.364990 433.977966,398.346741 
	C435.680115,415.729614 436.695648,433.212830 439.257935,450.466797 
	C440.976837,462.041504 444.874695,473.292664 448.150085,485.357605 
M1044.826416,352.254333 
	C1050.853271,352.529755 1050.618164,357.218781 1051.044678,361.275909 
	C1053.079102,380.626434 1054.576294,400.047821 1057.207886,419.315125 
	C1058.523682,428.947815 1061.528809,438.410095 1064.501831,447.715546 
	C1065.289185,450.179718 1068.754639,453.300049 1071.053711,453.352722 
	C1073.449341,453.407532 1076.960938,450.618378 1078.129639,448.182648 
	C1080.160034,443.951080 1081.735718,439.048767 1081.802734,434.403168 
	C1082.165161,409.273651 1082.052002,384.136536 1081.996338,359.002228 
	C1081.981201,352.127563 1081.871704,352.399048 1088.723267,350.905548 
	C1095.501465,349.428040 1102.480713,348.087463 1108.761353,345.307587 
	C1116.906738,341.702332 1117.326294,334.071381 1109.543213,329.730530 
	C1104.208984,326.755493 1097.821899,324.731537 1091.743042,324.222290 
	C1078.924805,323.148407 1078.880615,323.671143 1075.201050,311.350739 
	C1074.915649,310.395050 1074.705933,309.410950 1074.348022,308.483673 
	C1072.794800,304.459412 1071.549194,300.265747 1069.539551,296.479919 
	C1066.380371,290.528778 1062.533447,290.104889 1058.351074,295.216614 
	C1056.409302,297.589813 1054.697021,300.536346 1054.030762,303.483063 
	C1052.829102,308.797974 1052.283569,314.292419 1051.866455,319.742706 
	C1051.581177,323.470764 1050.463989,325.943024 1046.517456,326.944946 
	C1041.059448,328.330566 1035.641602,329.934937 1030.316772,331.766235 
	C1025.707275,333.351532 1022.472046,336.586029 1022.696533,341.728577 
	C1022.930298,347.084991 1027.039917,349.433289 1031.603394,350.501129 
	C1035.629395,351.443176 1039.831909,351.629883 1044.826416,352.254333 
M264.594452,413.154175 
	C265.725098,428.087097 266.507111,443.057770 268.118042,457.938690 
	C269.073120,466.760834 273.994019,473.819458 282.523743,476.844513 
	C296.988251,481.974274 312.081879,483.618256 327.245941,480.987793 
	C337.762482,479.163452 342.792999,471.710114 342.077179,461.196320 
	C341.453705,452.039642 334.563110,445.039673 324.889526,444.076019 
	C319.757141,443.564758 314.579193,443.519745 309.423950,443.227112 
	C302.060974,442.809204 301.854980,442.798309 301.719299,435.195435 
	C301.526062,424.370636 301.911896,413.533020 301.606171,402.713409 
	C301.309723,392.221405 300.622772,381.656799 295.498138,372.147095 
	C289.318329,360.679230 276.309235,360.224548 269.554962,371.311401 
	C267.440460,374.782227 265.490997,378.880890 265.188416,382.824310 
	C264.440002,392.578735 264.687683,402.409607 264.594452,413.154175 
M1121.969116,401.589783 
	C1124.405396,408.412689 1125.806274,415.863068 1129.484985,421.932922 
	C1138.171631,436.265778 1150.597412,437.704285 1163.338745,426.910767 
	C1163.698242,426.606201 1164.147583,426.407684 1164.966553,425.909302 
	C1165.384155,427.703705 1165.564209,429.326324 1166.136719,430.796112 
	C1169.075806,438.341949 1171.500488,446.180054 1175.317871,453.262299 
	C1178.298096,458.791718 1183.051270,458.422028 1186.953003,453.451141 
	C1190.934692,448.378143 1192.373413,442.430695 1192.335205,436.140442 
	C1192.258301,423.483124 1192.582031,410.781647 1191.595459,398.188110 
	C1191.052734,391.258759 1189.270752,383.953003 1186.114624,377.809906 
	C1181.044189,367.940887 1171.942749,368.055450 1165.838257,377.472839 
	C1163.340088,381.326660 1161.980469,385.903137 1159.916870,390.058563 
	C1158.226196,393.463013 1156.550537,396.947968 1154.292114,399.966095 
	C1153.177856,401.455078 1150.690552,402.793640 1148.959351,402.643524 
	C1147.753052,402.538910 1146.056763,399.885162 1145.829590,398.201508 
	C1145.101929,392.804810 1144.459229,387.306976 1144.707397,381.890442 
	C1145.040771,374.609314 1146.425171,367.382355 1146.990845,360.103577 
	C1147.346558,355.523438 1145.181030,351.910522 1140.759888,350.310883 
	C1136.291748,348.694214 1132.156494,350.229279 1129.767334,354.002136 
	C1126.696533,358.851379 1122.906372,364.071991 1122.278931,369.464539 
	C1121.081299,379.757080 1121.902832,390.284515 1121.969116,401.589783 
M777.747070,453.055450 
	C783.237183,451.704346 788.727295,450.353241 794.842285,448.848358 
	C794.876099,448.895020 795.416931,450.326111 796.441467,450.914001 
	C798.727295,452.225586 801.560547,454.344604 803.598572,453.837067 
	C805.686401,453.317078 807.332764,450.202393 808.695312,447.936523 
	C809.384521,446.790405 809.177307,445.004028 809.109863,443.519165 
	C807.735229,413.275024 806.523438,383.020508 804.706787,352.802429 
	C804.424255,348.103180 801.868958,343.266388 799.412354,339.047821 
	C796.874146,334.689331 792.718323,334.519806 788.716370,337.604706 
	C784.883728,340.559082 782.998413,344.577698 783.090027,349.308136 
	C783.218689,355.954681 783.626465,362.599335 784.056824,369.235565 
	C784.453308,375.350403 782.103760,379.782867 776.741394,382.846191 
	C764.180298,390.021820 757.624207,401.544128 754.508789,415.136505 
	C750.576111,432.294647 761.096497,449.757996 777.747070,453.055450 
M1002.740234,376.605652 
	C988.911377,371.126984 978.916504,378.539459 968.971497,387.176270 
	C968.384705,384.053741 968.007385,381.427795 967.376831,378.864136 
	C966.743652,376.289764 966.022339,373.712860 965.053040,371.249817 
	C961.934326,363.324280 957.044312,362.520721 952.187317,369.555603 
	C949.506653,373.438232 947.281677,377.973572 946.166504,382.536163 
	C942.690063,396.758270 942.808044,411.223755 944.906982,425.661530 
	C945.916016,432.602570 948.455383,438.864929 954.435547,443.105560 
	C959.095276,446.409851 963.316833,445.656219 965.355042,440.369293 
	C967.168274,435.665985 968.948669,430.285675 968.400208,425.471130 
	C967.162109,414.603577 973.587158,409.106659 981.272156,404.407532 
	C987.497620,400.600800 993.602295,402.907715 996.286743,409.744232 
	C997.975037,414.043701 998.699768,418.710968 1000.100037,423.136230 
	C1002.944397,432.124817 1005.453186,441.272461 1009.107178,449.929504 
	C1010.922058,454.229156 1014.281738,459.774048 1020.190674,457.981018 
	C1025.772339,456.287323 1025.997559,450.185883 1025.826782,445.259125 
	C1025.231445,428.079041 1023.131775,411.092010 1016.854675,394.921906 
	C1014.066833,387.740326 1010.680481,380.847015 1002.740234,376.605652 
M1199.128662,409.282837 
	C1200.989380,413.890656 1202.560425,418.645203 1204.796631,423.062958 
	C1206.826538,427.073090 1209.530762,431.508270 1214.841675,430.536163 
	C1220.131714,429.567932 1221.520142,424.571747 1222.716064,419.973602 
	C1222.964600,419.017883 1222.994263,417.997101 1223.054810,417.002045 
	C1223.347656,412.184448 1223.801514,407.367432 1223.855713,402.546387 
	C1223.971069,392.316895 1226.802368,382.885162 1231.693237,373.992645 
	C1238.706421,361.241547 1244.416504,359.969574 1256.017090,368.643311 
	C1259.433228,371.197632 1263.040771,372.812073 1267.010376,370.199280 
	C1271.036377,367.549561 1272.125854,363.154510 1270.466919,359.158539 
	C1268.218384,353.742493 1265.566040,348.088379 1261.663940,343.844696 
	C1252.009766,333.345306 1239.424927,334.068176 1230.134644,344.885742 
	C1228.022339,347.345398 1226.201904,350.055634 1224.091064,352.857819 
	C1222.112549,348.812927 1220.882812,344.670319 1218.344604,341.614655 
	C1216.239746,339.080841 1212.742676,336.702759 1209.592896,336.283997 
	C1205.387817,335.724945 1203.035767,339.533417 1201.508667,343.240479 
	C1200.940918,344.618256 1200.407715,346.048920 1200.143188,347.507050 
	C1196.468262,367.762207 1194.600830,388.058380 1199.128662,409.282837 
M814.147095,368.880035 
	C813.637573,373.299042 812.330933,377.795959 812.753967,382.123810 
	C814.801880,403.075226 822.901855,422.248352 831.238647,441.269562 
	C832.511841,444.174561 835.014221,446.809387 837.532593,448.846802 
	C843.624939,453.775635 850.400818,452.908997 854.825562,446.484344 
	C857.132446,443.134766 859.019714,439.206665 859.975769,435.267883 
	C863.537720,420.593201 866.957031,405.866180 869.741577,391.029633 
	C870.787964,385.454010 870.647095,379.404816 869.666321,373.813843 
	C869.229675,371.324677 865.647217,368.309021 862.979309,367.667755 
	C861.193176,367.238434 857.541504,370.085907 856.425354,372.317719 
	C854.309021,376.549133 853.027832,381.315491 852.105286,385.998596 
	C850.805420,392.596771 850.147339,399.321350 849.214905,405.991882 
	C846.955017,401.230682 845.906555,396.222565 843.965210,391.588531 
	C840.458130,383.217255 837.256653,374.526367 832.370300,366.976807 
	C827.200439,358.989349 819.727844,360.007965 814.147095,368.880035 
M545.035522,451.584442 
	C541.618408,454.194366 537.727722,456.373260 534.880249,459.501678 
	C528.459534,466.555939 530.988708,475.893219 540.068237,478.949463 
	C542.927795,479.912048 546.438293,480.243530 549.340881,479.555786 
	C563.845886,476.118713 575.066345,468.012848 581.691406,454.450958 
	C586.398315,444.815460 587.723816,432.678284 574.905945,423.615570 
	C565.972595,417.299377 566.667725,410.412598 575.970093,404.389130 
	C578.476135,402.766388 581.221619,401.517059 583.762573,399.943573 
	C586.862976,398.023651 590.178345,396.288055 592.842651,393.860260 
	C598.640442,388.577240 596.719055,379.100433 589.340759,376.395752 
	C586.766418,375.452057 583.769287,374.981110 581.051208,375.230713 
	C570.545959,376.195465 560.925964,379.809998 552.879272,386.722717 
	C540.225891,397.592865 540.390930,413.339386 553.008728,424.229401 
	C553.890503,424.990448 554.800293,425.720459 555.659119,426.506378 
	C560.978333,431.374176 561.730103,436.864838 556.861755,442.237366 
	C553.692139,445.735229 549.410339,448.225250 545.035522,451.584442 
M369.842712,443.944855 
	C370.580750,439.676636 373.893677,438.893768 377.412659,437.908600 
	C383.922791,436.086060 390.730560,434.646912 396.659821,431.586334 
	C405.905701,426.813751 407.570496,416.740967 401.525421,408.174347 
	C395.192841,399.200287 384.705017,396.122437 373.084534,399.477539 
	C345.378632,407.476868 340.658264,445.888702 352.323883,461.602386 
	C355.839111,466.337433 360.401489,469.516327 366.135101,470.804504 
	C375.551025,472.919922 384.278564,470.974609 392.386963,465.912109 
	C399.202240,461.657013 402.634583,455.386871 402.075653,447.482758 
	C401.867493,444.538910 400.445404,440.284882 398.312164,439.259552 
	C396.108063,438.200134 391.986267,439.693756 389.388550,441.229462 
	C385.567871,443.488159 382.543091,447.062042 378.808319,449.509583 
	C376.779053,450.839447 373.982941,450.999146 371.532715,451.686676 
	C370.933105,449.388733 370.333496,447.090790 369.842712,443.944855 
M891.124756,437.533264 
	C896.257568,438.647034 901.391052,440.685425 906.523010,440.681458 
	C917.089355,440.673279 931.802490,433.882019 933.371948,421.206848 
	C933.954529,416.501526 935.115417,411.295471 930.425598,408.483582 
	C925.804932,405.713196 922.045349,409.331757 918.501648,412.223053 
	C915.031494,415.054413 911.581055,418.004608 907.748108,420.270172 
	C903.821777,422.590973 901.392944,420.977844 901.028748,416.485168 
	C900.590881,411.083771 902.979187,408.698090 909.046082,407.059265 
	C915.724060,405.255402 922.676636,403.667053 928.711609,400.475830 
	C937.227600,395.972595 938.824524,386.136169 933.485901,378.087555 
	C927.360168,368.852509 916.865051,365.291779 905.363220,368.546295 
	C889.278870,373.097412 878.585815,388.004303 878.008667,406.816284 
	C877.642212,418.762238 879.661926,429.772339 891.124756,437.533264 
M1332.853149,395.308655 
	C1332.871704,391.451324 1333.210938,387.133301 1329.083130,385.227264 
	C1324.907349,383.299072 1321.426147,385.818481 1318.325073,388.558228 
	C1316.703491,389.990845 1315.116577,391.472717 1313.404785,392.790588 
	C1311.433472,394.308258 1309.454102,395.876801 1307.279175,397.056122 
	C1302.570068,399.609436 1300.011719,397.943512 1300.008545,392.556030 
	C1300.005981,388.089752 1302.090698,385.499207 1306.537720,384.495605 
	C1312.029541,383.256226 1317.581299,382.059448 1322.862305,380.162720 
	C1329.642456,377.727661 1334.873901,373.282684 1335.401001,365.518372 
	C1335.927612,357.759338 1331.667480,352.265656 1325.516968,348.194153 
	C1315.419434,341.509644 1299.950684,343.661499 1289.840088,353.716827 
	C1278.026978,365.465485 1275.020020,380.137390 1277.967163,396.077667 
	C1280.533569,409.957672 1290.201050,417.884064 1303.639404,417.920990 
	C1318.910522,417.962952 1329.846191,409.796265 1332.853149,395.308655 
M1050.491577,209.785629 
	C1041.361938,217.680038 1032.074585,225.405411 1023.252380,233.629562 
	C1021.721313,235.056854 1021.376404,238.816513 1022.020264,241.057281 
	C1022.328979,242.131546 1026.584595,243.181427 1028.440674,242.521515 
	C1040.667603,238.174255 1051.341309,231.334824 1059.633179,221.160889 
	C1062.239746,217.962769 1063.289917,214.358002 1060.873657,210.626526 
	C1058.223267,206.533768 1054.627441,207.935715 1050.491577,209.785629 
M1005.331787,220.812149 
	C1006.808228,217.837982 1008.640015,214.983322 1009.688599,211.865265 
	C1012.001465,204.988022 1014.554626,198.087997 1015.784851,190.985123 
	C1016.668701,185.882202 1013.374878,182.473129 1009.236145,181.884933 
	C1004.206177,181.170044 1002.429382,182.388504 1000.940491,188.782150 
	C998.721436,198.310638 996.999390,207.954697 994.793152,217.486450 
	C993.999329,220.916168 993.699158,224.618790 997.379761,225.316116 
	C999.602905,225.737289 1002.449158,222.869476 1005.331787,220.812149 
M522.283447,379.436584 
	C522.544312,377.979889 523.289673,376.402466 522.963135,375.092163 
	C522.324707,372.530151 521.736694,369.025085 519.918884,367.944824 
	C518.039734,366.828125 514.613159,367.750946 512.079956,368.506866 
	C510.514069,368.974121 508.812653,370.543243 508.107422,372.054260 
	C505.748993,377.107452 503.500916,382.262848 501.885345,387.583923 
	C501.335449,389.394989 502.151611,392.913422 503.479004,393.676422 
	C505.157379,394.641205 508.820496,394.487213 510.181122,393.239044 
	C514.491577,389.284851 518.128662,384.596680 522.283447,379.436584 
M971.931458,215.533112 
	C965.806458,208.909790 959.876038,202.083969 953.381226,195.845718 
	C952.181274,194.693222 947.113281,195.144577 946.600525,196.200607 
	C945.508667,198.449249 945.051514,202.887146 946.419800,204.127716 
	C952.770752,209.886276 959.682251,215.075211 966.710205,220.017181 
	C969.987976,222.322067 972.398621,220.394043 971.931458,215.533112 
M1022.732605,219.186447 
	C1023.253662,217.798752 1024.208984,216.404327 1024.187622,215.025055 
	C1024.159790,213.230713 1023.356201,211.448410 1022.886414,209.660965 
	C1021.179138,210.214615 1018.700378,210.246796 1017.908081,211.418915 
	C1015.450378,215.054871 1013.399109,219.026581 1011.711426,223.084778 
	C1011.208923,224.293243 1012.423828,226.215973 1012.851868,227.811432 
	C1014.731934,227.267517 1017.089050,227.240585 1018.375671,226.053482 
	C1020.124512,224.439865 1021.054993,221.939316 1022.732605,219.186447 
M984.324890,206.430817 
	C982.432068,205.024353 980.327759,202.244812 978.690369,202.497025 
	C975.272949,203.023468 974.466309,206.411606 975.248169,209.583221 
	C975.954041,212.446762 976.758484,215.476578 978.376465,217.848373 
	C979.252075,219.131927 981.943787,219.668869 983.766785,219.575546 
	C984.513428,219.537323 985.687500,216.945358 985.685852,215.516281 
	C985.682556,212.744370 984.984863,209.973267 984.324890,206.430817 
z"/>
<path fill="#FBF4F0" opacity="1.000000" stroke="none" 
	d="
M953.003235,491.001190 
	C969.457458,490.666534 985.413208,490.361694 1001.367310,489.987640 
	C1013.490784,489.703430 1025.610229,489.179321 1037.734863,489.027344 
	C1071.019409,488.610107 1104.308960,488.507141 1137.590332,487.927734 
	C1154.696167,487.629883 1166.369873,500.629089 1165.092041,515.122314 
	C1164.552124,521.247498 1164.973389,520.730591 1170.940308,520.306030 
	C1180.520508,519.624329 1190.299683,517.270264 1199.330322,523.530334 
	C1214.346436,533.939453 1213.609863,557.136536 1197.730103,566.111572 
	C1196.290283,566.925415 1194.820190,567.685669 1192.702881,568.827515 
	C1194.460205,570.721985 1195.849121,572.504517 1197.516235,573.970520 
	C1207.982178,583.173035 1207.292358,606.168274 1189.482666,613.964355 
	C1180.404297,617.938354 1170.812866,615.620972 1161.426392,615.617859 
	C1160.122803,615.617432 1158.822876,615.058044 1157.515015,615.027832 
	C1141.394287,614.656067 1125.272949,614.079895 1109.150757,614.046021 
	C1052.660034,613.927368 996.168457,614.121216 939.677917,613.957092 
	C902.392151,613.848694 865.107178,613.377258 827.822754,612.976990 
	C806.200806,612.744812 784.581238,612.126038 762.959595,612.071228 
	C748.171875,612.033691 733.383179,612.708313 718.593628,612.993652 
	C699.306519,613.365784 679.983093,613.070862 660.741638,614.196838 
	C646.429810,615.034363 632.182495,617.406372 617.980042,619.576355 
	C599.032532,622.471375 580.161560,625.864990 561.248169,628.986206 
	C539.240845,632.617981 517.220032,636.167908 495.211090,639.789673 
	C480.861237,642.151001 466.484467,644.377625 452.195984,647.069397 
	C446.240448,648.191284 440.579803,650.958252 434.614502,651.931091 
	C423.876129,653.682373 414.036377,648.142578 409.269897,638.555481 
	C404.773102,629.510864 406.527130,618.428711 413.635956,610.849426 
	C414.414551,610.019287 415.109924,609.111145 416.185791,607.833069 
	C415.059814,607.131409 414.241791,606.346375 413.276031,606.060608 
	C394.741272,600.575195 387.713837,579.271790 399.660461,564.113770 
	C401.653381,561.585144 404.589813,559.681091 407.359650,557.909668 
	C412.363953,554.709229 417.571594,551.826721 423.141724,548.548157 
	C419.356781,541.626221 418.945221,534.701599 421.690308,527.726990 
	C425.655518,517.652405 435.519684,511.298126 446.638275,510.955109 
	C462.555969,510.464081 478.463837,509.656311 494.375916,508.984436 
	C502.165588,508.655487 509.952728,508.235352 517.745544,508.019928 
	C532.365662,507.615753 546.993042,507.452759 561.609863,506.961975 
	C577.027527,506.444244 592.441467,505.762665 607.847473,504.966400 
	C624.889832,504.085571 641.922241,503.008759 658.957275,501.988922 
	C675.328003,501.008881 691.694946,499.964600 708.066528,499.000061 
	C725.600708,497.967041 743.135193,496.935486 760.675415,496.013519 
	C775.083252,495.256256 789.496521,494.578217 803.913269,494.018738 
	C815.697388,493.561462 827.488342,493.185455 839.279663,493.028198 
	C870.564636,492.610931 901.851929,492.375061 933.136963,491.961517 
	C939.595764,491.876160 946.048523,491.333282 953.003235,491.001190 
M589.251831,536.995056 
	C584.439392,537.336426 579.599060,537.463684 574.822876,538.084167 
	C570.707336,538.618835 567.884888,541.260559 568.166809,545.497131 
	C568.883545,556.267822 569.777466,567.044250 571.165710,577.744995 
	C571.810608,582.715576 575.432251,585.041870 580.535645,584.852051 
	C594.231995,584.342468 606.911499,574.314331 596.971252,558.101379 
	C604.875732,545.409180 602.575500,538.280151 589.251831,536.995056 
M850.732727,542.004761 
	C849.822083,538.655701 849.305725,535.132202 847.917236,531.994568 
	C845.169739,525.786011 839.258850,523.256714 831.643433,524.461365 
	C823.234802,525.791504 818.616577,529.275024 818.371704,536.174988 
	C818.157471,542.211365 818.793030,548.477173 820.293518,554.323303 
	C822.060120,561.206604 827.593201,564.420898 834.762146,563.796692 
	C838.018799,563.513123 840.284119,564.225220 842.684998,566.635132 
	C844.189880,568.145813 847.591431,569.332520 849.378418,568.653992 
	C852.582520,567.437073 852.532288,564.031616 851.570557,560.901917 
	C851.054260,559.221802 850.369690,557.489685 850.360352,555.777771 
	C850.336914,551.487488 850.655090,547.195435 850.732727,542.004761 
M858.987854,566.558167 
	C862.634338,569.717224 866.235901,568.566284 869.829956,565.884949 
	C870.618103,568.267517 870.950439,570.318542 871.938477,571.979492 
	C873.038147,573.828125 874.734741,575.321716 876.171509,576.969849 
	C877.465332,574.851807 879.688232,572.811096 879.872253,570.600647 
	C880.353149,564.824219 880.126892,558.962769 879.787292,553.158386 
	C879.667786,551.116760 878.711731,548.942932 877.586792,547.181152 
	C875.577087,544.033813 872.908691,544.162903 870.688538,546.970398 
	C869.484497,548.493042 868.988770,550.554688 867.966431,552.248169 
	C866.977600,553.886047 865.723022,555.363464 864.585205,556.911377 
	C863.911133,556.671265 863.237061,556.431152 862.563049,556.191040 
	C862.795166,551.851257 863.309387,547.499939 863.133850,543.176697 
	C863.052673,541.176392 861.626587,539.230652 860.810242,537.260132 
	C859.012329,538.415527 856.572693,539.161926 855.529724,540.798462 
	C851.446655,547.205078 853.060608,559.426086 858.987854,566.558167 
M665.985657,558.895752 
	C666.024841,552.244324 666.152039,545.591736 666.059509,538.942139 
	C666.023193,536.333679 665.970215,532.732605 662.329590,533.244751 
	C660.458496,533.507935 658.455383,536.273193 657.464478,538.360107 
	C656.523193,540.342590 656.599365,542.916199 656.616211,545.226990 
	C656.694702,556.005493 656.762634,566.789246 657.233032,577.553711 
	C657.301575,579.121521 659.522095,580.595215 660.746887,582.112488 
	C662.187988,580.750916 664.013000,579.610229 664.960327,577.964417 
	C665.873962,576.377258 665.881592,574.268616 666.098267,573.264893 
	C668.006165,574.791687 670.041321,576.762024 672.409851,578.172791 
	C673.608704,578.886780 675.409851,578.589661 676.938660,578.749695 
	C676.834106,577.261230 677.199158,575.498474 676.524353,574.343018 
	C675.237427,572.139648 673.357361,570.282654 672.650513,569.416992 
	C674.133301,565.592041 676.949585,561.761963 675.996521,560.120911 
	C673.467285,555.765625 670.484680,559.832031 667.719482,561.165894 
	C667.432800,561.304199 666.570007,560.248413 665.985657,558.895752 
M631.182007,572.058472 
	C633.976746,578.851990 637.364441,581.509827 642.721863,581.112183 
	C647.876465,580.729492 652.315430,576.655518 653.156799,570.062805 
	C653.681946,565.947388 652.769592,561.585205 652.099731,557.398254 
	C651.420166,553.150635 649.316101,549.819885 644.438538,549.586121 
	C639.590027,549.353760 635.618408,551.139221 633.067688,555.398621 
	C630.095032,560.362549 629.534485,565.700317 631.182007,572.058472 
M615.966187,551.143616 
	C605.187622,552.981750 602.874573,566.502502 606.277588,575.165588 
	C607.973877,579.483948 611.078247,582.581177 615.904968,582.766296 
	C620.672485,582.949219 624.139465,580.296814 626.223145,576.119812 
	C629.156494,570.239502 628.424805,564.319702 626.544495,558.190918 
	C624.970398,553.060181 622.113586,550.590820 615.966187,551.143616 
M793.064331,528.591675 
	C792.220581,531.604980 790.606506,534.649048 790.724976,537.624023 
	C790.878784,541.485535 789.835571,543.810181 787.093323,546.654785 
	C783.825989,550.044128 780.885498,554.596130 779.857300,559.112000 
	C777.980225,567.356384 785.011414,573.184631 792.935730,570.926697 
	C793.612854,570.733765 794.601501,570.519897 795.061157,570.850342 
	C799.718079,574.197998 800.246338,570.856079 800.141724,567.530396 
	C799.796936,556.574341 799.392517,545.612305 798.581848,534.684387 
	C798.385193,532.033508 797.913940,528.440613 793.064331,528.591675 
M767.283630,561.481812 
	C768.828491,566.361816 770.142517,571.334839 772.051208,576.068115 
	C772.667236,577.596008 774.846191,578.493530 776.310242,579.679443 
	C777.073914,577.953613 778.675171,576.111206 778.453979,574.522522 
	C777.567383,568.154785 776.718689,561.667236 774.720642,555.597717 
	C772.198059,547.934509 766.636047,546.579224 759.816895,551.068542 
	C759.026978,551.588623 758.235840,552.106934 757.410950,552.648560 
	C756.819763,550.654358 756.469788,548.836670 755.747864,547.181091 
	C754.525391,544.377991 752.847229,544.339539 750.939270,546.683044 
	C747.267578,551.192993 746.520386,567.355713 750.018250,572.075745 
	C750.900146,573.265686 752.748230,574.652161 753.909668,574.462524 
	C755.041809,574.277649 756.228271,572.318115 756.721741,570.904236 
	C757.245789,569.402710 756.886169,567.615051 757.081909,565.972473 
	C757.690491,560.864868 762.855957,558.173645 767.283630,561.481812 
M892.094421,539.594971 
	C894.724121,541.093811 897.353760,542.592651 900.592102,544.438416 
	C900.004517,545.549622 899.213318,547.261475 898.230347,548.854980 
	C896.666870,551.389709 894.709229,553.713684 893.396423,556.363647 
	C891.037537,561.125488 892.978027,565.478027 898.207397,565.818726 
	C903.212830,566.144775 908.397034,565.334290 913.326843,564.234802 
	C914.799194,563.906494 915.679749,560.924927 916.831421,559.158997 
	C915.050049,558.254028 913.349915,556.909851 911.465637,556.561584 
	C909.375305,556.175171 907.116821,556.698059 903.715393,556.895569 
	C905.347534,554.246033 906.233032,552.742798 907.182617,551.281189 
	C908.896729,548.642578 910.955750,546.177551 912.317322,543.371460 
	C914.638855,538.587036 912.692322,534.282166 907.714050,533.476074 
	C901.734863,532.507935 896.099609,533.395508 892.094421,539.594971 
M934.854431,555.229736 
	C933.666321,555.062073 932.478149,554.894348 930.636841,554.634399 
	C932.394470,552.101440 933.717285,550.225037 935.007812,548.326721 
	C936.313110,546.406555 937.788086,544.567505 938.835938,542.513062 
	C941.807007,536.687866 939.180237,532.066589 932.686646,531.957764 
	C929.769714,531.908875 926.572876,532.156677 923.997620,533.343140 
	C921.957275,534.283203 920.671082,536.859863 919.049988,538.709778 
	C921.044739,539.485352 923.033264,540.277283 925.037903,541.026428 
	C925.632996,541.248779 926.273254,541.350586 927.722168,541.717957 
	C926.815125,543.679199 926.184692,545.433350 925.238831,546.996582 
	C923.782715,549.403381 921.895386,551.564270 920.572998,554.033997 
	C917.585815,559.612793 919.727783,564.149963 926.005676,564.657959 
	C930.054810,564.985718 934.252136,564.209229 938.306580,563.494019 
	C941.112000,562.998962 944.449402,561.595947 943.434814,558.187195 
	C942.981934,556.665527 939.383545,556.051208 937.177856,555.106384 
	C936.770630,554.931946 936.196411,555.147339 934.854431,555.229736 
M726.283203,549.848938 
	C725.178955,552.415833 723.763367,554.898010 723.036499,557.567627 
	C721.602783,562.832947 721.883606,568.156250 726.679199,571.554199 
	C731.690063,575.104614 735.682007,571.381653 739.654785,568.256775 
	C739.983948,569.518127 740.015686,570.762146 740.602722,571.630859 
	C741.527588,572.999329 742.825928,574.115479 743.966248,575.338379 
	C744.636902,573.839844 745.924622,572.317261 745.867249,570.847107 
	C745.660461,565.544617 745.826111,559.994812 744.240967,555.055176 
	C743.051208,551.347534 739.993286,547.419556 736.666138,545.440918 
	C733.111633,543.327087 729.469238,546.331116 726.283203,549.848938 
M971.488159,557.975281 
	C971.055725,559.889954 969.649536,562.610535 970.414124,563.534302 
	C971.623901,564.995850 974.330566,565.995667 976.328369,565.880798 
	C982.163025,565.545532 988.803772,559.044739 989.314392,553.200623 
	C989.495667,551.126831 988.754761,548.464905 987.458862,546.858948 
	C982.366943,540.549011 982.260193,540.459229 989.447754,536.173340 
	C990.158875,535.749268 991.133789,535.461365 991.500854,534.828613 
	C992.335571,533.389893 993.777161,531.356812 993.305481,530.333557 
	C992.637817,528.885132 990.478149,527.255249 988.938110,527.237061 
	C983.771423,527.175903 979.146301,529.120667 975.905273,533.320984 
	C973.112732,536.940125 973.357605,540.730286 976.316956,544.238586 
	C981.476990,550.355835 981.390442,551.087585 974.819275,555.450073 
	C973.854675,556.090454 972.936768,556.801270 971.488159,557.975281 
M689.073181,567.190247 
	C686.786682,569.262817 684.529419,571.368896 682.205261,573.398254 
	C680.007019,575.317627 677.271179,577.655457 679.687195,580.373413 
	C681.124451,581.990356 684.835815,582.869568 687.034607,582.273071 
	C692.557434,580.775085 696.893616,577.082031 698.236816,571.276917 
	C698.763489,569.000854 698.269531,565.766602 696.932678,563.910706 
	C692.057800,557.143250 691.850525,557.294556 699.248474,552.659424 
	C699.811707,552.306519 700.595703,552.035767 700.853333,551.516541 
	C701.603882,550.003784 702.950500,548.110718 702.536072,546.881836 
	C702.101868,545.594360 699.938904,544.171448 698.457092,544.085144 
	C693.201660,543.779053 688.633972,545.791870 685.284790,549.904053 
	C682.274231,553.600464 682.666260,557.518616 685.784973,561.244995 
	C687.106506,562.824036 688.080994,564.693542 689.073181,567.190247 
M953.223022,560.359619 
	C957.837280,561.110657 962.125977,560.025269 964.694946,556.189514 
	C965.880188,554.419739 965.118408,551.346008 965.239502,548.863464 
	C963.376465,549.435730 961.484131,549.930420 959.664734,550.617981 
	C958.922546,550.898438 958.401428,551.872131 957.667358,552.040710 
	C956.581787,552.289917 955.396057,552.102417 954.252991,552.100952 
	C954.816833,550.872620 955.061157,549.129944 956.018555,548.535156 
	C957.494446,547.618164 959.475830,547.542908 961.212708,547.012024 
	C964.849731,545.900085 967.580383,543.981689 967.039917,539.609741 
	C966.603577,536.080017 962.755188,533.131958 958.723938,533.108643 
	C952.746216,533.074097 947.555725,537.684692 945.980225,544.428650 
	C944.154602,552.243225 946.200684,557.199219 953.223022,560.359619 
M889.929443,554.546631 
	C889.326355,550.636536 888.933289,546.675354 888.000610,542.845520 
	C887.694580,541.589050 885.988403,540.673645 884.922546,539.602234 
	C883.918579,540.797302 882.031250,542.010620 882.055542,543.184387 
	C882.201965,550.255493 882.672180,557.328613 883.356934,564.369690 
	C883.451355,565.340881 885.439453,566.927612 886.364319,566.806335 
	C887.410034,566.669312 888.797241,565.047913 889.060364,563.856567 
	C889.661316,561.135315 889.667419,558.282715 889.929443,554.546631 
M882.970886,537.373169 
	C884.318420,536.587341 886.708557,535.883240 886.778076,534.997131 
	C886.892700,533.534790 885.684753,531.813293 884.642822,530.515259 
	C884.350342,530.150940 881.799194,530.871582 881.795044,531.119568 
	C881.762817,533.064514 882.098267,535.015625 882.970886,537.373169 
z"/>
<path fill="#4F576F" opacity="1.000000" stroke="none" 
	d="
M714.174927,354.844666 
	C723.250671,376.468872 732.176697,397.755249 741.075012,419.053253 
	C743.507385,424.875061 746.104919,430.644928 748.183716,436.593384 
	C751.061157,444.827240 747.259155,452.379028 739.092407,455.491699 
	C733.731934,457.534821 728.228271,455.334930 724.976196,449.286102 
	C722.863892,445.357208 721.406494,441.072906 719.703430,436.928223 
	C717.974792,432.721161 715.374329,430.116943 710.326294,430.451874 
	C704.357849,430.847870 698.355347,430.928986 692.372070,430.841187 
	C687.402466,430.768219 685.052002,433.423676 684.211365,437.845551 
	C683.435364,441.927460 683.017700,446.078369 682.215454,450.154236 
	C680.545471,458.637482 675.372375,462.349121 665.971191,462.013123 
	C656.845154,461.686951 650.619324,456.852936 650.104858,448.661224 
	C649.754639,443.085663 650.040527,437.285095 651.202271,431.832367 
	C655.701904,410.712830 660.432251,389.634399 665.612976,368.673248 
	C667.016907,362.992950 669.484619,357.189026 672.879944,352.457886 
	C684.392944,336.415070 704.097229,337.607574 714.174927,354.844666 
M700.744446,397.722412 
	C699.891846,395.646210 699.039307,393.570007 697.663879,390.220581 
	C696.182068,396.278839 695.046570,400.921539 693.757446,406.192047 
	C695.891663,405.724731 697.295288,405.454437 698.678589,405.104095 
	C700.073547,404.750793 701.448425,404.317963 703.022949,403.865051 
	C702.248535,401.797943 701.618286,400.115570 700.744446,397.722412 
z"/>
<path fill="#505870" opacity="1.000000" stroke="none" 
	d="
M447.973877,485.023071 
	C444.874695,473.292664 440.976837,462.041504 439.257935,450.466797 
	C436.695648,433.212830 435.680115,415.729614 433.977966,398.346741 
	C433.783905,396.364990 433.441681,394.395172 433.106323,392.430359 
	C432.588593,389.397064 430.958435,388.001343 427.681396,387.802521 
	C423.047760,387.521362 418.382477,386.907684 413.861420,385.867767 
	C409.402435,384.842133 405.617981,382.200317 405.367279,377.234283 
	C405.124298,372.420624 408.137909,369.036072 412.560211,367.457794 
	C418.174377,365.454163 423.904083,363.726440 429.673431,362.222870 
	C433.256104,361.289154 434.139130,359.123169 434.451538,355.768158 
	C435.004578,349.829468 435.667328,343.843750 437.036499,338.055725 
	C438.204193,333.119446 440.824585,327.793823 446.292511,327.444427 
	C451.904938,327.085724 453.120483,333.062744 454.756622,337.257782 
	C456.987762,342.978485 458.714233,348.903931 460.483551,354.793762 
	C461.487854,358.136963 463.352600,359.173218 466.935394,359.427765 
	C473.832672,359.917877 480.679321,361.261719 487.507629,362.473175 
	C489.070679,362.750519 490.559265,363.798462 491.937164,364.710754 
	C499.885529,369.973358 499.825134,377.262299 491.115356,381.013245 
	C484.497162,383.863434 477.194580,385.386322 470.046265,386.649017 
	C465.495178,387.452942 464.684296,389.265381 464.733887,393.543274 
	C465.017517,418.020630 465.179138,442.505798 464.806152,466.979553 
	C464.720093,472.625763 463.205475,478.608154 460.877930,483.773285 
	C457.847748,490.497803 452.824219,490.720032 447.973877,485.023071 
z"/>
<path fill="#4F576F" opacity="1.000000" stroke="none" 
	d="
M1044.391479,352.202240 
	C1039.831909,351.629883 1035.629395,351.443176 1031.603394,350.501129 
	C1027.039917,349.433289 1022.930298,347.084991 1022.696533,341.728577 
	C1022.472046,336.586029 1025.707275,333.351532 1030.316772,331.766235 
	C1035.641602,329.934937 1041.059448,328.330566 1046.517456,326.944946 
	C1050.463989,325.943024 1051.581177,323.470764 1051.866455,319.742706 
	C1052.283569,314.292419 1052.829102,308.797974 1054.030762,303.483063 
	C1054.697021,300.536346 1056.409302,297.589813 1058.351074,295.216614 
	C1062.533447,290.104889 1066.380371,290.528778 1069.539551,296.479919 
	C1071.549194,300.265747 1072.794800,304.459412 1074.348022,308.483673 
	C1074.705933,309.410950 1074.915649,310.395050 1075.201050,311.350739 
	C1078.880615,323.671143 1078.924805,323.148407 1091.743042,324.222290 
	C1097.821899,324.731537 1104.208984,326.755493 1109.543213,329.730530 
	C1117.326294,334.071381 1116.906738,341.702332 1108.761353,345.307587 
	C1102.480713,348.087463 1095.501465,349.428040 1088.723267,350.905548 
	C1081.871704,352.399048 1081.981201,352.127563 1081.996338,359.002228 
	C1082.052002,384.136536 1082.165161,409.273651 1081.802734,434.403168 
	C1081.735718,439.048767 1080.160034,443.951080 1078.129639,448.182648 
	C1076.960938,450.618378 1073.449341,453.407532 1071.053711,453.352722 
	C1068.754639,453.300049 1065.289185,450.179718 1064.501831,447.715546 
	C1061.528809,438.410095 1058.523682,428.947815 1057.207886,419.315125 
	C1054.576294,400.047821 1053.079102,380.626434 1051.044678,361.275909 
	C1050.618164,357.218781 1050.853271,352.529755 1044.391479,352.202240 
z"/>
<path fill="#50576F" opacity="1.000000" stroke="none" 
	d="
M264.564758,412.681946 
	C264.687683,402.409607 264.440002,392.578735 265.188416,382.824310 
	C265.490997,378.880890 267.440460,374.782227 269.554962,371.311401 
	C276.309235,360.224548 289.318329,360.679230 295.498138,372.147095 
	C300.622772,381.656799 301.309723,392.221405 301.606171,402.713409 
	C301.911896,413.533020 301.526062,424.370636 301.719299,435.195435 
	C301.854980,442.798309 302.060974,442.809204 309.423950,443.227112 
	C314.579193,443.519745 319.757141,443.564758 324.889526,444.076019 
	C334.563110,445.039673 341.453705,452.039642 342.077179,461.196320 
	C342.792999,471.710114 337.762482,479.163452 327.245941,480.987793 
	C312.081879,483.618256 296.988251,481.974274 282.523743,476.844513 
	C273.994019,473.819458 269.073120,466.760834 268.118042,457.938690 
	C266.507111,443.057770 265.725098,428.087097 264.564758,412.681946 
z"/>
<path fill="#4F576F" opacity="1.000000" stroke="none" 
	d="
M1121.927490,401.152100 
	C1121.902832,390.284515 1121.081299,379.757080 1122.278931,369.464539 
	C1122.906372,364.071991 1126.696533,358.851379 1129.767334,354.002136 
	C1132.156494,350.229279 1136.291748,348.694214 1140.759888,350.310883 
	C1145.181030,351.910522 1147.346558,355.523438 1146.990845,360.103577 
	C1146.425171,367.382355 1145.040771,374.609314 1144.707397,381.890442 
	C1144.459229,387.306976 1145.101929,392.804810 1145.829590,398.201508 
	C1146.056763,399.885162 1147.753052,402.538910 1148.959351,402.643524 
	C1150.690552,402.793640 1153.177856,401.455078 1154.292114,399.966095 
	C1156.550537,396.947968 1158.226196,393.463013 1159.916870,390.058563 
	C1161.980469,385.903137 1163.340088,381.326660 1165.838257,377.472839 
	C1171.942749,368.055450 1181.044189,367.940887 1186.114624,377.809906 
	C1189.270752,383.953003 1191.052734,391.258759 1191.595459,398.188110 
	C1192.582031,410.781647 1192.258301,423.483124 1192.335205,436.140442 
	C1192.373413,442.430695 1190.934692,448.378143 1186.953003,453.451141 
	C1183.051270,458.422028 1178.298096,458.791718 1175.317871,453.262299 
	C1171.500488,446.180054 1169.075806,438.341949 1166.136719,430.796112 
	C1165.564209,429.326324 1165.384155,427.703705 1164.966553,425.909302 
	C1164.147583,426.407684 1163.698242,426.606201 1163.338745,426.910767 
	C1150.597412,437.704285 1138.171631,436.265778 1129.484985,421.932922 
	C1125.806274,415.863068 1124.405396,408.412689 1121.927490,401.152100 
z"/>
<path fill="#50586F" opacity="1.000000" stroke="none" 
	d="
M777.312744,453.028839 
	C761.096497,449.757996 750.576111,432.294647 754.508789,415.136505 
	C757.624207,401.544128 764.180298,390.021820 776.741394,382.846191 
	C782.103760,379.782867 784.453308,375.350403 784.056824,369.235565 
	C783.626465,362.599335 783.218689,355.954681 783.090027,349.308136 
	C782.998413,344.577698 784.883728,340.559082 788.716370,337.604706 
	C792.718323,334.519806 796.874146,334.689331 799.412354,339.047821 
	C801.868958,343.266388 804.424255,348.103180 804.706787,352.802429 
	C806.523438,383.020508 807.735229,413.275024 809.109863,443.519165 
	C809.177307,445.004028 809.384521,446.790405 808.695312,447.936523 
	C807.332764,450.202393 805.686401,453.317078 803.598572,453.837067 
	C801.560547,454.344604 798.727295,452.225586 796.441467,450.914001 
	C795.416931,450.326111 794.876099,448.895020 794.842285,448.848358 
	C788.727295,450.353241 783.237183,451.704346 777.312744,453.028839 
M779.803101,424.843323 
	C784.725342,423.713409 787.231689,420.205994 786.528320,414.571411 
	C785.819580,408.893768 784.637817,403.275177 783.663330,397.630707 
	C783.097534,397.433197 782.531738,397.235687 781.965942,397.038208 
	C779.851562,401.513062 777.277161,405.837067 775.746826,410.503479 
	C774.080078,415.585938 774.446838,420.722656 779.803101,424.843323 
z"/>
<path fill="#50586F" opacity="1.000000" stroke="none" 
	d="
M1003.082642,376.765320 
	C1010.680481,380.847015 1014.066833,387.740326 1016.854675,394.921906 
	C1023.131775,411.092010 1025.231445,428.079041 1025.826782,445.259125 
	C1025.997559,450.185883 1025.772339,456.287323 1020.190674,457.981018 
	C1014.281738,459.774048 1010.922058,454.229156 1009.107178,449.929504 
	C1005.453186,441.272461 1002.944397,432.124817 1000.100037,423.136230 
	C998.699768,418.710968 997.975037,414.043701 996.286743,409.744232 
	C993.602295,402.907715 987.497620,400.600800 981.272156,404.407532 
	C973.587158,409.106659 967.162109,414.603577 968.400208,425.471130 
	C968.948669,430.285675 967.168274,435.665985 965.355042,440.369293 
	C963.316833,445.656219 959.095276,446.409851 954.435547,443.105560 
	C948.455383,438.864929 945.916016,432.602570 944.906982,425.661530 
	C942.808044,411.223755 942.690063,396.758270 946.166504,382.536163 
	C947.281677,377.973572 949.506653,373.438232 952.187317,369.555603 
	C957.044312,362.520721 961.934326,363.324280 965.053040,371.249817 
	C966.022339,373.712860 966.743652,376.289764 967.376831,378.864136 
	C968.007385,381.427795 968.384705,384.053741 968.971497,387.176270 
	C978.916504,378.539459 988.911377,371.126984 1003.082642,376.765320 
z"/>
<path fill="#505870" opacity="1.000000" stroke="none" 
	d="
M1199.068848,408.874756 
	C1194.600830,388.058380 1196.468262,367.762207 1200.143188,347.507050 
	C1200.407715,346.048920 1200.940918,344.618256 1201.508667,343.240479 
	C1203.035767,339.533417 1205.387817,335.724945 1209.592896,336.283997 
	C1212.742676,336.702759 1216.239746,339.080841 1218.344604,341.614655 
	C1220.882812,344.670319 1222.112549,348.812927 1224.091064,352.857819 
	C1226.201904,350.055634 1228.022339,347.345398 1230.134644,344.885742 
	C1239.424927,334.068176 1252.009766,333.345306 1261.663940,343.844696 
	C1265.566040,348.088379 1268.218384,353.742493 1270.466919,359.158539 
	C1272.125854,363.154510 1271.036377,367.549561 1267.010376,370.199280 
	C1263.040771,372.812073 1259.433228,371.197632 1256.017090,368.643311 
	C1244.416504,359.969574 1238.706421,361.241547 1231.693237,373.992645 
	C1226.802368,382.885162 1223.971069,392.316895 1223.855713,402.546387 
	C1223.801514,407.367432 1223.347656,412.184448 1223.054810,417.002045 
	C1222.994263,417.997101 1222.964600,419.017883 1222.716064,419.973602 
	C1221.520142,424.571747 1220.131714,429.567932 1214.841675,430.536163 
	C1209.530762,431.508270 1206.826538,427.073090 1204.796631,423.062958 
	C1202.560425,418.645203 1200.989380,413.890656 1199.068848,408.874756 
z"/>
<path fill="#505870" opacity="1.000000" stroke="none" 
	d="
M814.321472,368.538940 
	C819.727844,360.007965 827.200439,358.989349 832.370300,366.976807 
	C837.256653,374.526367 840.458130,383.217255 843.965210,391.588531 
	C845.906555,396.222565 846.955017,401.230682 849.214905,405.991882 
	C850.147339,399.321350 850.805420,392.596771 852.105286,385.998596 
	C853.027832,381.315491 854.309021,376.549133 856.425354,372.317719 
	C857.541504,370.085907 861.193176,367.238434 862.979309,367.667755 
	C865.647217,368.309021 869.229675,371.324677 869.666321,373.813843 
	C870.647095,379.404816 870.787964,385.454010 869.741577,391.029633 
	C866.957031,405.866180 863.537720,420.593201 859.975769,435.267883 
	C859.019714,439.206665 857.132446,443.134766 854.825562,446.484344 
	C850.400818,452.908997 843.624939,453.775635 837.532593,448.846802 
	C835.014221,446.809387 832.511841,444.174561 831.238647,441.269562 
	C822.901855,422.248352 814.801880,403.075226 812.753967,382.123810 
	C812.330933,377.795959 813.637573,373.299042 814.321472,368.538940 
z"/>
<path fill="#50586F" opacity="1.000000" stroke="none" 
	d="
M545.331177,451.375610 
	C549.410339,448.225250 553.692139,445.735229 556.861755,442.237366 
	C561.730103,436.864838 560.978333,431.374176 555.659119,426.506378 
	C554.800293,425.720459 553.890503,424.990448 553.008728,424.229401 
	C540.390930,413.339386 540.225891,397.592865 552.879272,386.722717 
	C560.925964,379.809998 570.545959,376.195465 581.051208,375.230713 
	C583.769287,374.981110 586.766418,375.452057 589.340759,376.395752 
	C596.719055,379.100433 598.640442,388.577240 592.842651,393.860260 
	C590.178345,396.288055 586.862976,398.023651 583.762573,399.943573 
	C581.221619,401.517059 578.476135,402.766388 575.970093,404.389130 
	C566.667725,410.412598 565.972595,417.299377 574.905945,423.615570 
	C587.723816,432.678284 586.398315,444.815460 581.691406,454.450958 
	C575.066345,468.012848 563.845886,476.118713 549.340881,479.555786 
	C546.438293,480.243530 542.927795,479.912048 540.068237,478.949463 
	C530.988708,475.893219 528.459534,466.555939 534.880249,459.501678 
	C537.727722,456.373260 541.618408,454.194366 545.331177,451.375610 
z"/>
<path fill="#505870" opacity="1.000000" stroke="none" 
	d="
M369.788300,444.368835 
	C370.333496,447.090790 370.933105,449.388733 371.532715,451.686646 
	C373.982941,450.999146 376.779053,450.839447 378.808319,449.509583 
	C382.543091,447.062042 385.567871,443.488159 389.388550,441.229462 
	C391.986267,439.693756 396.108063,438.200134 398.312164,439.259552 
	C400.445404,440.284882 401.867493,444.538910 402.075653,447.482758 
	C402.634583,455.386871 399.202240,461.657013 392.386963,465.912109 
	C384.278564,470.974609 375.551025,472.919922 366.135101,470.804504 
	C360.401489,469.516327 355.839111,466.337433 352.323883,461.602386 
	C340.658264,445.888702 345.378632,407.476868 373.084534,399.477539 
	C384.705017,396.122437 395.192841,399.200287 401.525421,408.174347 
	C407.570496,416.740967 405.905701,426.813751 396.659821,431.586334 
	C390.730560,434.646912 383.922791,436.086060 377.412659,437.908600 
	C373.893677,438.893768 370.580750,439.676636 369.788300,444.368835 
M384.119995,420.327118 
	C382.294647,421.868652 380.469299,423.410217 378.643982,424.951782 
	C379.084930,425.583099 379.525909,426.214386 379.966888,426.845703 
	C383.066132,425.169037 386.165375,423.492340 389.264618,421.815674 
	C389.034576,421.240265 388.804504,420.664886 388.574463,420.089508 
	C387.336365,420.089508 386.098297,420.089508 384.119995,420.327118 
z"/>
<path fill="#505870" opacity="1.000000" stroke="none" 
	d="
M890.822144,437.319611 
	C879.661926,429.772339 877.642212,418.762238 878.008667,406.816284 
	C878.585815,388.004303 889.278870,373.097412 905.363220,368.546295 
	C916.865051,365.291779 927.360168,368.852509 933.485901,378.087555 
	C938.824524,386.136169 937.227600,395.972595 928.711609,400.475830 
	C922.676636,403.667053 915.724060,405.255402 909.046082,407.059265 
	C902.979187,408.698090 900.590881,411.083771 901.028748,416.485168 
	C901.392944,420.977844 903.821777,422.590973 907.748108,420.270172 
	C911.581055,418.004608 915.031494,415.054413 918.501648,412.223053 
	C922.045349,409.331757 925.804932,405.713196 930.425598,408.483582 
	C935.115417,411.295471 933.954529,416.501526 933.371948,421.206848 
	C931.802490,433.882019 917.089355,440.673279 906.523010,440.681458 
	C901.391052,440.685425 896.257568,438.647034 890.822144,437.319611 
M919.087891,392.383270 
	C919.460327,391.437744 919.832764,390.492188 920.205139,389.546631 
	C919.815735,389.077850 919.426331,388.609070 919.036926,388.140289 
	C916.057739,389.877869 913.078552,391.615448 910.099365,393.353027 
	C910.462891,394.108154 910.826477,394.863251 911.190063,395.618378 
	C913.627441,394.725220 916.064819,393.832062 919.087891,392.383270 
z"/>
<path fill="#505870" opacity="1.000000" stroke="none" 
	d="
M1332.818604,395.732300 
	C1329.846191,409.796265 1318.910522,417.962952 1303.639404,417.920990 
	C1290.201050,417.884064 1280.533569,409.957672 1277.967163,396.077667 
	C1275.020020,380.137390 1278.026978,365.465485 1289.840088,353.716827 
	C1299.950684,343.661499 1315.419434,341.509644 1325.516968,348.194153 
	C1331.667480,352.265656 1335.927612,357.759338 1335.401001,365.518372 
	C1334.873901,373.282684 1329.642456,377.727661 1322.862305,380.162720 
	C1317.581299,382.059448 1312.029541,383.256226 1306.537720,384.495605 
	C1302.090698,385.499207 1300.005981,388.089752 1300.008545,392.556030 
	C1300.011719,397.943512 1302.570068,399.609436 1307.279175,397.056122 
	C1309.454102,395.876801 1311.433472,394.308258 1313.404785,392.790588 
	C1315.116577,391.472717 1316.703491,389.990845 1318.325073,388.558228 
	C1321.426147,385.818481 1324.907349,383.299072 1329.083130,385.227264 
	C1333.210938,387.133301 1332.871704,391.451324 1332.818604,395.732300 
M1319.105469,367.266479 
	C1315.180786,365.106323 1311.989136,366.605103 1309.753052,371.841034 
	C1313.715698,372.535797 1316.733398,371.278076 1319.105469,367.266479 
z"/>
<path fill="#515971" opacity="1.000000" stroke="none" 
	d="
M1050.815063,209.582855 
	C1054.627441,207.935715 1058.223267,206.533768 1060.873657,210.626526 
	C1063.289917,214.358002 1062.239746,217.962769 1059.633179,221.160889 
	C1051.341309,231.334824 1040.667603,238.174255 1028.440674,242.521515 
	C1026.584595,243.181427 1022.328979,242.131546 1022.020264,241.057281 
	C1021.376404,238.816513 1021.721313,235.056854 1023.252380,233.629562 
	C1032.074585,225.405411 1041.361938,217.680038 1050.815063,209.582855 
z"/>
<path fill="#515971" opacity="1.000000" stroke="none" 
	d="
M1005.173584,221.145813 
	C1002.449158,222.869476 999.602905,225.737289 997.379761,225.316116 
	C993.699158,224.618790 993.999329,220.916168 994.793152,217.486450 
	C996.999390,207.954697 998.721436,198.310638 1000.940491,188.782150 
	C1002.429382,182.388504 1004.206177,181.170044 1009.236145,181.884933 
	C1013.374878,182.473129 1016.668701,185.882202 1015.784851,190.985123 
	C1014.554626,198.087997 1012.001465,204.988022 1009.688599,211.865265 
	C1008.640015,214.983322 1006.808228,217.837982 1005.173584,221.145813 
z"/>
<path fill="#515971" opacity="1.000000" stroke="none" 
	d="
M522.154785,379.814453 
	C518.128662,384.596680 514.491577,389.284851 510.181122,393.239044 
	C508.820496,394.487213 505.157379,394.641205 503.479004,393.676422 
	C502.151611,392.913422 501.335449,389.394989 501.885345,387.583923 
	C503.500916,382.262848 505.748993,377.107452 508.107422,372.054260 
	C508.812653,370.543243 510.514069,368.974121 512.079956,368.506866 
	C514.613159,367.750946 518.039734,366.828125 519.918884,367.944824 
	C521.736694,369.025085 522.324707,372.530151 522.963135,375.092163 
	C523.289673,376.402466 522.544312,377.979889 522.154785,379.814453 
z"/>
<path fill="#515971" opacity="1.000000" stroke="none" 
	d="
M972.068726,215.869186 
	C972.398621,220.394043 969.987976,222.322067 966.710205,220.017181 
	C959.682251,215.075211 952.770752,209.886276 946.419800,204.127716 
	C945.051514,202.887146 945.508667,198.449249 946.600525,196.200607 
	C947.113281,195.144577 952.181274,194.693222 953.381226,195.845718 
	C959.876038,202.083969 965.806458,208.909790 972.068726,215.869186 
z"/>
<path fill="#555D74" opacity="1.000000" stroke="none" 
	d="
M1022.534485,219.502777 
	C1021.054993,221.939316 1020.124512,224.439865 1018.375671,226.053482 
	C1017.089050,227.240585 1014.731934,227.267517 1012.851868,227.811432 
	C1012.423828,226.215973 1011.208923,224.293243 1011.711426,223.084778 
	C1013.399109,219.026581 1015.450378,215.054871 1017.908081,211.418915 
	C1018.700378,210.246796 1021.179138,210.214615 1022.886414,209.660950 
	C1023.356201,211.448410 1024.159790,213.230713 1024.187622,215.025055 
	C1024.208984,216.404327 1023.253662,217.798752 1022.534485,219.502777 
z"/>
<path fill="#555D74" opacity="1.000000" stroke="none" 
	d="
M984.449890,206.816315 
	C984.984863,209.973267 985.682556,212.744370 985.685852,215.516281 
	C985.687500,216.945358 984.513428,219.537323 983.766785,219.575546 
	C981.943787,219.668869 979.252075,219.131927 978.376465,217.848373 
	C976.758484,215.476578 975.954041,212.446762 975.248169,209.583221 
	C974.466309,206.411606 975.272949,203.023468 978.690369,202.497025 
	C980.327759,202.244812 982.432068,205.024353 984.449890,206.816315 
z"/>
<path fill="#606983" opacity="1.000000" stroke="none" 
	d="
M589.708252,537.000549 
	C602.575500,538.280151 604.875732,545.409180 596.971252,558.101379 
	C606.911499,574.314331 594.231995,584.342468 580.535645,584.852051 
	C575.432251,585.041870 571.810608,582.715576 571.165710,577.744995 
	C569.777466,567.044250 568.883545,556.267822 568.166809,545.497131 
	C567.884888,541.260559 570.707336,538.618835 574.822876,538.084167 
	C579.599060,537.463684 584.439392,537.336426 589.708252,537.000549 
M584.915100,573.481995 
	C586.181580,571.491272 587.448059,569.500549 588.714539,567.509766 
	C586.297058,566.983459 583.487244,565.410706 581.540771,566.140564 
	C576.971069,567.853821 579.807190,571.507019 580.149292,574.805969 
	C581.741516,574.413452 582.985718,574.106689 584.915100,573.481995 
M588.039001,551.961609 
	C587.903809,546.959900 584.047180,548.531860 581.602600,548.744446 
	C577.803650,549.074829 578.797180,551.876709 579.459595,555.048340 
	C582.380371,554.136475 584.985168,553.323303 588.039001,551.961609 
z"/>
<path fill="#606A84" opacity="1.000000" stroke="none" 
	d="
M850.784424,542.454407 
	C850.655090,547.195435 850.336914,551.487488 850.360352,555.777771 
	C850.369690,557.489685 851.054260,559.221802 851.570557,560.901917 
	C852.532288,564.031616 852.582520,567.437073 849.378418,568.653992 
	C847.591431,569.332520 844.189880,568.145813 842.684998,566.635132 
	C840.284119,564.225220 838.018799,563.513123 834.762146,563.796692 
	C827.593201,564.420898 822.060120,561.206604 820.293518,554.323303 
	C818.793030,548.477173 818.157471,542.211365 818.371704,536.174988 
	C818.616577,529.275024 823.234802,525.791504 831.643433,524.461365 
	C839.258850,523.256714 845.169739,525.786011 847.917236,531.994568 
	C849.305725,535.132202 849.822083,538.655701 850.784424,542.454407 
M835.409302,535.246887 
	C830.686462,535.959290 829.353394,539.475586 828.997559,543.457825 
	C828.632935,547.537537 828.254272,551.808777 833.076599,555.284973 
	C832.171875,548.862305 835.461975,547.470581 840.385864,547.805298 
	C840.091980,542.972412 840.610596,538.402588 835.409302,535.246887 
z"/>
<path fill="#606983" opacity="1.000000" stroke="none" 
	d="
M858.717773,566.307129 
	C853.060608,559.426086 851.446655,547.205078 855.529724,540.798462 
	C856.572693,539.161926 859.012329,538.415527 860.810242,537.260132 
	C861.626587,539.230652 863.052673,541.176392 863.133850,543.176697 
	C863.309387,547.499939 862.795166,551.851257 862.563049,556.191040 
	C863.237061,556.431152 863.911133,556.671265 864.585205,556.911377 
	C865.723022,555.363464 866.977600,553.886047 867.966431,552.248169 
	C868.988770,550.554688 869.484497,548.493042 870.688538,546.970398 
	C872.908691,544.162903 875.577087,544.033813 877.586792,547.181152 
	C878.711731,548.942932 879.667786,551.116760 879.787292,553.158386 
	C880.126892,558.962769 880.353149,564.824219 879.872253,570.600647 
	C879.688232,572.811096 877.465332,574.851807 876.171509,576.969849 
	C874.734741,575.321716 873.038147,573.828125 871.938477,571.979492 
	C870.950439,570.318542 870.618103,568.267517 869.829956,565.884949 
	C866.235901,568.566284 862.634338,569.717224 858.717773,566.307129 
z"/>
<path fill="#606983" opacity="1.000000" stroke="none" 
	d="
M665.980103,559.321228 
	C666.570007,560.248413 667.432800,561.304199 667.719482,561.165894 
	C670.484680,559.832031 673.467285,555.765625 675.996521,560.120911 
	C676.949585,561.761963 674.133301,565.592041 672.650513,569.416992 
	C673.357361,570.282654 675.237427,572.139648 676.524353,574.343018 
	C677.199158,575.498474 676.834106,577.261230 676.938660,578.749695 
	C675.409851,578.589661 673.608704,578.886780 672.409851,578.172791 
	C670.041321,576.762024 668.006165,574.791687 666.098267,573.264893 
	C665.881592,574.268616 665.873962,576.377258 664.960327,577.964417 
	C664.013000,579.610229 662.187988,580.750916 660.746887,582.112488 
	C659.522095,580.595215 657.301575,579.121521 657.233032,577.553711 
	C656.762634,566.789246 656.694702,556.005493 656.616211,545.226990 
	C656.599365,542.916199 656.523193,540.342590 657.464478,538.360107 
	C658.455383,536.273193 660.458496,533.507935 662.329590,533.244751 
	C665.970215,532.732605 666.023193,536.333679 666.059509,538.942139 
	C666.152039,545.591736 666.024841,552.244324 665.980103,559.321228 
z"/>
<path fill="#606983" opacity="1.000000" stroke="none" 
	d="
M631.097412,571.665039 
	C629.534485,565.700317 630.095032,560.362549 633.067688,555.398621 
	C635.618408,551.139221 639.590027,549.353760 644.438538,549.586121 
	C649.316101,549.819885 651.420166,553.150635 652.099731,557.398254 
	C652.769592,561.585205 653.681946,565.947388 653.156799,570.062805 
	C652.315430,576.655518 647.876465,580.729492 642.721863,581.112183 
	C637.364441,581.509827 633.976746,578.851990 631.097412,571.665039 
z"/>
<path fill="#616A84" opacity="1.000000" stroke="none" 
	d="
M616.370483,551.101685 
	C622.113586,550.590820 624.970398,553.060181 626.544495,558.190918 
	C628.424805,564.319702 629.156494,570.239502 626.223145,576.119812 
	C624.139465,580.296814 620.672485,582.949219 615.904968,582.766296 
	C611.078247,582.581177 607.973877,579.483948 606.277588,575.165588 
	C602.874573,566.502502 605.187622,552.981750 616.370483,551.101685 
z"/>
<path fill="#606A84" opacity="1.000000" stroke="none" 
	d="
M793.399780,528.422729 
	C797.913940,528.440613 798.385193,532.033508 798.581848,534.684387 
	C799.392517,545.612305 799.796936,556.574341 800.141724,567.530396 
	C800.246338,570.856079 799.718079,574.197998 795.061157,570.850342 
	C794.601501,570.519897 793.612854,570.733765 792.935730,570.926697 
	C785.011414,573.184631 777.980225,567.356384 779.857300,559.112000 
	C780.885498,554.596130 783.825989,550.044128 787.093323,546.654785 
	C789.835571,543.810181 790.878784,541.485535 790.724976,537.624023 
	C790.606506,534.649048 792.220581,531.604980 793.399780,528.422729 
M787.409973,557.594727 
	C787.892273,558.848633 788.374573,560.102600 788.962341,561.630676 
	C792.495117,558.281433 792.495117,558.281433 789.964539,550.986755 
	C788.966797,553.364929 788.232483,555.115234 787.409973,557.594727 
z"/>
<path fill="#606A84" opacity="1.000000" stroke="none" 
	d="
M767.098267,561.141235 
	C762.855957,558.173645 757.690491,560.864868 757.081909,565.972473 
	C756.886169,567.615051 757.245789,569.402710 756.721741,570.904236 
	C756.228271,572.318115 755.041809,574.277649 753.909668,574.462524 
	C752.748230,574.652161 750.900146,573.265686 750.018250,572.075745 
	C746.520386,567.355713 747.267578,551.192993 750.939270,546.683044 
	C752.847229,544.339539 754.525391,544.377991 755.747864,547.181091 
	C756.469788,548.836670 756.819763,550.654358 757.410950,552.648560 
	C758.235840,552.106934 759.026978,551.588623 759.816895,551.068542 
	C766.636047,546.579224 772.198059,547.934509 774.720642,555.597717 
	C776.718689,561.667236 777.567383,568.154785 778.453979,574.522522 
	C778.675171,576.111206 777.073914,577.953613 776.310242,579.679443 
	C774.846191,578.493530 772.667236,577.596008 772.051208,576.068115 
	C770.142517,571.334839 768.828491,566.361816 767.098267,561.141235 
z"/>
<path fill="#616A84" opacity="1.000000" stroke="none" 
	d="
M892.150879,539.225647 
	C896.099609,533.395508 901.734863,532.507935 907.714050,533.476074 
	C912.692322,534.282166 914.638855,538.587036 912.317322,543.371460 
	C910.955750,546.177551 908.896729,548.642578 907.182617,551.281189 
	C906.233032,552.742798 905.347534,554.246033 903.715393,556.895569 
	C907.116821,556.698059 909.375305,556.175171 911.465637,556.561584 
	C913.349915,556.909851 915.050049,558.254028 916.831421,559.159058 
	C915.679749,560.924927 914.799194,563.906494 913.326843,564.234802 
	C908.397034,565.334290 903.212830,566.144775 898.207397,565.818726 
	C892.978027,565.478027 891.037537,561.125488 893.396423,556.363647 
	C894.709229,553.713684 896.666870,551.389709 898.230347,548.854980 
	C899.213318,547.261475 900.004517,545.549622 900.592102,544.438416 
	C897.353760,542.592651 894.724121,541.093811 892.150879,539.225647 
z"/>
<path fill="#616A84" opacity="1.000000" stroke="none" 
	d="
M935.276855,555.206299 
	C936.196411,555.147339 936.770630,554.931946 937.177856,555.106384 
	C939.383545,556.051208 942.981934,556.665527 943.434814,558.187195 
	C944.449402,561.595947 941.112000,562.998962 938.306580,563.494019 
	C934.252136,564.209229 930.054810,564.985718 926.005676,564.657959 
	C919.727783,564.149963 917.585815,559.612793 920.572998,554.033997 
	C921.895386,551.564270 923.782715,549.403381 925.238831,546.996582 
	C926.184692,545.433350 926.815125,543.679199 927.722168,541.717957 
	C926.273254,541.350586 925.632996,541.248779 925.037903,541.026428 
	C923.033264,540.277283 921.044739,539.485352 919.049988,538.709778 
	C920.671082,536.859863 921.957275,534.283203 923.997620,533.343140 
	C926.572876,532.156677 929.769714,531.908875 932.686646,531.957764 
	C939.180237,532.066589 941.807007,536.687866 938.835938,542.513062 
	C937.788086,544.567505 936.313110,546.406555 935.007812,548.326721 
	C933.717285,550.225037 932.394470,552.101440 930.636841,554.634399 
	C932.478149,554.894348 933.666321,555.062073 935.276855,555.206299 
z"/>
<path fill="#616A84" opacity="1.000000" stroke="none" 
	d="
M726.520447,549.566284 
	C729.469238,546.331116 733.111633,543.327087 736.666138,545.440918 
	C739.993286,547.419556 743.051208,551.347534 744.240967,555.055176 
	C745.826111,559.994812 745.660461,565.544617 745.867249,570.847107 
	C745.924622,572.317261 744.636902,573.839844 743.966248,575.338379 
	C742.825928,574.115479 741.527588,572.999329 740.602722,571.630859 
	C740.015686,570.762146 739.983948,569.518127 739.654785,568.256775 
	C735.682007,571.381653 731.690063,575.104614 726.679199,571.554199 
	C721.883606,568.156250 721.602783,562.832947 723.036499,557.567627 
	C723.763367,554.898010 725.178955,552.415833 726.520447,549.566284 
M735.635925,559.968018 
	C736.503662,557.864990 737.371338,555.761963 738.239014,553.658936 
	C737.530701,553.332275 736.822388,553.005615 736.114014,552.679016 
	C734.931274,554.592224 733.658203,556.462280 732.693481,558.479797 
	C732.586975,558.702454 734.244141,559.768494 735.635925,559.968018 
z"/>
<path fill="#616A84" opacity="1.000000" stroke="none" 
	d="
M971.742676,557.727356 
	C972.936768,556.801270 973.854675,556.090454 974.819275,555.450073 
	C981.390442,551.087585 981.476990,550.355835 976.316956,544.238586 
	C973.357605,540.730286 973.112732,536.940125 975.905273,533.320984 
	C979.146301,529.120667 983.771423,527.175903 988.938110,527.237061 
	C990.478149,527.255249 992.637817,528.885132 993.305481,530.333557 
	C993.777161,531.356812 992.335571,533.389893 991.500854,534.828613 
	C991.133789,535.461365 990.158875,535.749268 989.447754,536.173340 
	C982.260193,540.459229 982.366943,540.549011 987.458862,546.858948 
	C988.754761,548.464905 989.495667,551.126831 989.314392,553.200623 
	C988.803772,559.044739 982.163025,565.545532 976.328369,565.880798 
	C974.330566,565.995667 971.623901,564.995850 970.414124,563.534302 
	C969.649536,562.610535 971.055725,559.889954 971.742676,557.727356 
z"/>
<path fill="#616A84" opacity="1.000000" stroke="none" 
	d="
M689.143188,566.810669 
	C688.080994,564.693542 687.106506,562.824036 685.784973,561.244995 
	C682.666260,557.518616 682.274231,553.600464 685.284790,549.904053 
	C688.633972,545.791870 693.201660,543.779053 698.457092,544.085144 
	C699.938904,544.171448 702.101868,545.594360 702.536072,546.881836 
	C702.950500,548.110718 701.603882,550.003784 700.853333,551.516541 
	C700.595703,552.035767 699.811707,552.306519 699.248474,552.659424 
	C691.850525,557.294556 692.057800,557.143250 696.932678,563.910706 
	C698.269531,565.766602 698.763489,569.000854 698.236816,571.276917 
	C696.893616,577.082031 692.557434,580.775085 687.034607,582.273071 
	C684.835815,582.869568 681.124451,581.990356 679.687195,580.373413 
	C677.271179,577.655457 680.007019,575.317627 682.205261,573.398254 
	C684.529419,571.368896 686.786682,569.262817 689.143188,566.810669 
z"/>
<path fill="#616A84" opacity="1.000000" stroke="none" 
	d="
M952.849854,560.262085 
	C946.200684,557.199219 944.154602,552.243225 945.980225,544.428650 
	C947.555725,537.684692 952.746216,533.074097 958.723938,533.108643 
	C962.755188,533.131958 966.603577,536.080017 967.039917,539.609741 
	C967.580383,543.981689 964.849731,545.900085 961.212708,547.012024 
	C959.475830,547.542908 957.494446,547.618164 956.018555,548.535156 
	C955.061157,549.129944 954.816833,550.872620 954.252930,552.100952 
	C955.396057,552.102417 956.581787,552.289917 957.667358,552.040710 
	C958.401428,551.872131 958.922546,550.898438 959.664734,550.617981 
	C961.484131,549.930420 963.376465,549.435730 965.239502,548.863525 
	C965.118408,551.346008 965.880188,554.419739 964.694946,556.189514 
	C962.125977,560.025269 957.837280,561.110657 952.849854,560.262085 
z"/>
<path fill="#616A84" opacity="1.000000" stroke="none" 
	d="
M889.922302,555.015015 
	C889.667419,558.282715 889.661316,561.135315 889.060364,563.856567 
	C888.797241,565.047913 887.410034,566.669312 886.364319,566.806335 
	C885.439453,566.927612 883.451355,565.340881 883.356934,564.369690 
	C882.672180,557.328613 882.201965,550.255493 882.055542,543.184387 
	C882.031250,542.010620 883.918579,540.797302 884.922546,539.602234 
	C885.988403,540.673645 887.694580,541.589050 888.000610,542.845520 
	C888.933289,546.675354 889.326355,550.636536 889.922302,555.015015 
z"/>
<path fill="#616A84" opacity="1.000000" stroke="none" 
	d="
M882.645630,537.168945 
	C882.098267,535.015625 881.762817,533.064514 881.795044,531.119568 
	C881.799194,530.871582 884.350342,530.150940 884.642822,530.515259 
	C885.684753,531.813293 886.892700,533.534790 886.778076,534.997131 
	C886.708557,535.883240 884.318420,536.587341 882.645630,537.168945 
z"/>
<path fill="#F8F9F9" opacity="1.000000" stroke="none" 
	d="
M700.866211,398.077820 
	C701.618286,400.115570 702.248535,401.797943 703.022949,403.865051 
	C701.448425,404.317963 700.073547,404.750793 698.678589,405.104095 
	C697.295288,405.454437 695.891663,405.724731 693.757446,406.192047 
	C695.046570,400.921539 696.182068,396.278839 697.663879,390.220581 
	C699.039307,393.570007 699.891846,395.646210 700.866211,398.077820 
z"/>
<path fill="#F8F9F9" opacity="1.000000" stroke="none" 
	d="
M779.456238,424.698364 
	C774.446838,420.722656 774.080078,415.585938 775.746826,410.503479 
	C777.277161,405.837067 779.851562,401.513062 781.965942,397.038208 
	C782.531738,397.235687 783.097534,397.433197 783.663330,397.630707 
	C784.637817,403.275177 785.819580,408.893768 786.528320,414.571411 
	C787.231689,420.205994 784.725342,423.713409 779.456238,424.698364 
z"/>
<path fill="#F8F9F9" opacity="1.000000" stroke="none" 
	d="
M384.490112,420.208313 
	C386.098297,420.089508 387.336365,420.089508 388.574463,420.089508 
	C388.804504,420.664886 389.034576,421.240265 389.264618,421.815674 
	C386.165375,423.492340 383.066132,425.169037 379.966888,426.845703 
	C379.525909,426.214386 379.084930,425.583099 378.643982,424.951782 
	C380.469299,423.410217 382.294647,421.868652 384.490112,420.208313 
z"/>
<path fill="#F0EBE9" opacity="1.000000" stroke="none" 
	d="
M918.795044,392.661102 
	C916.064819,393.832062 913.627441,394.725220 911.190063,395.618378 
	C910.826477,394.863251 910.462891,394.108154 910.099365,393.353027 
	C913.078552,391.615448 916.057739,389.877869 919.036926,388.140289 
	C919.426331,388.609070 919.815735,389.077850 920.205139,389.546631 
	C919.832764,390.492188 919.460327,391.437744 918.795044,392.661102 
z"/>
<path fill="#F0EBE9" opacity="1.000000" stroke="none" 
	d="
M1319.047852,367.664185 
	C1316.733398,371.278076 1313.715698,372.535797 1309.753052,371.841034 
	C1311.989136,366.605103 1315.180786,365.106323 1319.047852,367.664185 
z"/>
<path fill="#F0EBE9" opacity="1.000000" stroke="none" 
	d="
M584.572510,573.640991 
	C582.985718,574.106689 581.741516,574.413452 580.149292,574.805969 
	C579.807190,571.507019 576.971069,567.853821 581.540771,566.140564 
	C583.487244,565.410706 586.297058,566.983459 588.714539,567.509766 
	C587.448059,569.500549 586.181580,571.491272 584.572510,573.640991 
z"/>
<path fill="#F0EBE9" opacity="1.000000" stroke="none" 
	d="
M587.814453,552.235840 
	C584.985168,553.323303 582.380371,554.136475 579.459595,555.048340 
	C578.797180,551.876709 577.803650,549.074829 581.602600,548.744446 
	C584.047180,548.531860 587.903809,546.959900 587.814453,552.235840 
z"/>
<path fill="#FBF4F0" opacity="1.000000" stroke="none" 
	d="
M835.769653,535.351013 
	C840.610596,538.402588 840.091980,542.972412 840.385864,547.805298 
	C835.461975,547.470581 832.171875,548.862305 833.076599,555.284973 
	C828.254272,551.808777 828.632935,547.537537 828.997559,543.457825 
	C829.353394,539.475586 830.686462,535.959290 835.769653,535.351013 
z"/>
<path fill="#F0EBE9" opacity="1.000000" stroke="none" 
	d="
M787.454102,557.230103 
	C788.232483,555.115234 788.966797,553.364929 789.964539,550.986755 
	C792.495117,558.281433 792.495117,558.281433 788.962341,561.630676 
	C788.374573,560.102600 787.892273,558.848633 787.454102,557.230103 
z"/>
<path fill="#F0EBE9" opacity="1.000000" stroke="none" 
	d="
M735.359619,560.205688 
	C734.244141,559.768494 732.586975,558.702454 732.693481,558.479797 
	C733.658203,556.462280 734.931274,554.592224 736.114014,552.679016 
	C736.822388,553.005615 737.530701,553.332275 738.239014,553.658936 
	C737.371338,555.761963 736.503662,557.864990 735.359619,560.205688 
z"/>
</svg>