<?xml version="1.0" standalone="no"?>
<!DOCTYPE svg PUBLIC "-//W3C//DTD SVG 20010904//EN"
 "http://www.w3.org/TR/2001/REC-SVG-20010904/DTD/svg10.dtd">
<svg version="1.0" xmlns="http://www.w3.org/2000/svg"
 width="300.000000pt" height="143.000000pt" viewBox="0 0 300.000000 143.000000"
 preserveAspectRatio="xMidYMid meet">
<metadata>
Created by potrace 1.10, written by Peter Selinger 2001-2011
</metadata>
<g transform="translate(0.000000,143.000000) scale(0.100000,-0.100000)"
fill="#000000" stroke="none">
<path d="M362 1198 c-11 -15 -27 -377 -17 -407 5 -18 15 -21 56 -21 35 0 51 4
55 15 5 13 8 13 27 0 31 -22 113 -19 147 5 57 41 77 156 40 237 -35 77 -126
107 -185 61 l-28 -22 7 64 c6 47 4 65 -6 71 -20 13 -84 11 -96 -3z m80 -85
c-2 -40 0 -73 3 -73 4 0 20 11 37 25 56 47 136 26 173 -45 23 -44 19 -136 -6
-176 -11 -19 -29 -39 -39 -44 -32 -17 -105 -12 -133 10 -32 25 -37 25 -37 -1
0 -17 -5 -20 -37 -17 l-38 3 3 185 c1 102 4 191 7 198 3 8 17 12 37 10 l33 -3
-3 -72z"/>
<path d="M494 1030 c-57 -23 -74 -121 -29 -165 29 -30 73 -33 105 -7 16 13 24
32 27 68 4 43 2 54 -18 76 -28 31 -56 40 -85 28z m66 -30 c43 -43 16 -140 -39
-140 -48 0 -79 57 -60 109 19 52 64 66 99 31z"/>
<path d="M1482 1198 c-12 -16 -25 -399 -14 -416 6 -9 26 -12 58 -10 l49 3 -3
63 c-3 60 -3 62 22 62 34 0 73 -37 89 -85 l14 -40 54 0 54 0 -2 45 c-3 52 -26
88 -72 112 l-33 16 31 16 c52 27 84 125 45 140 -39 15 -94 3 -94 -21 0 -27
-33 -72 -62 -84 -46 -19 -51 -5 -38 102 9 74 8 94 -2 101 -20 12 -84 9 -96 -4z
m84 -22 c3 -8 1 -47 -5 -87 -8 -61 -7 -78 5 -97 26 -40 91 -10 123 58 13 29
22 35 46 35 24 0 31 -5 33 -23 5 -35 -24 -72 -76 -95 -28 -12 -41 -22 -32 -25
55 -16 98 -45 113 -77 28 -58 23 -75 -20 -75 -35 1 -40 4 -60 48 -34 72 -109
107 -133 62 -7 -12 -8 -39 -4 -65 l6 -45 -35 0 c-28 0 -37 5 -42 21 -7 22 4
358 12 372 8 13 63 8 69 -7z"/>
<path d="M2455 1189 c-84 -26 -111 -104 -55 -161 34 -34 36 -38 16 -38 -24 0
-56 -50 -56 -87 0 -50 25 -90 72 -114 37 -19 54 -21 144 -17 63 3 109 10 118
18 12 9 16 32 16 85 0 69 1 73 25 79 19 5 25 13 25 34 0 33 -16 53 -37 45 -8
-3 -18 -1 -22 4 -12 20 -48 24 -64 8 -25 -24 -129 -21 -152 5 -18 19 -18 22
-2 37 25 26 115 22 161 -6 40 -25 56 -21 56 13 0 66 -11 84 -55 95 -52 13
-148 13 -190 0z m211 -34 c14 -19 20 -75 8 -75 -3 0 -17 9 -31 20 -29 22 -129
28 -164 10 -27 -15 -25 -64 3 -84 31 -22 158 -23 158 -1 0 20 46 20 54 -1 3
-8 9 -13 14 -10 4 2 14 1 21 -4 19 -11 6 -40 -19 -40 -18 0 -20 -6 -20 -80 0
-77 -1 -81 -26 -90 -40 -16 -191 -12 -224 5 -39 20 -60 53 -60 94 0 26 8 42
37 69 37 34 37 35 17 51 -49 40 -57 90 -18 126 33 30 50 34 153 31 68 -2 86
-6 97 -21z"/>
<path d="M2482 964 c-27 -19 -29 -64 -4 -87 37 -34 113 -34 146 -1 19 18 21
75 4 92 -18 18 -119 15 -146 -4z m146 -31 c7 -50 -69 -80 -128 -50 -31 15 -36
39 -14 61 12 13 31 16 78 14 54 -3 61 -5 64 -25z"/>
<path d="M820 1099 c-65 -26 -100 -85 -100 -166 0 -107 58 -163 169 -163 80 0
125 25 152 84 55 122 -24 257 -151 255 -25 0 -56 -5 -70 -10z m151 -32 c90
-60 91 -208 2 -260 -44 -25 -137 -25 -172 0 -69 52 -88 129 -49 202 41 79 146
107 219 58z"/>
<path d="M848 1025 c-31 -17 -41 -41 -40 -98 1 -79 83 -117 137 -62 37 37 35
106 -4 146 -33 32 -53 35 -93 14z m82 -25 c25 -25 27 -95 3 -122 -16 -18 -59
-24 -79 -10 -40 26 -41 109 -1 137 29 20 53 19 77 -5z"/>
<path d="M1185 1096 c-69 -31 -103 -101 -92 -193 10 -87 69 -133 173 -133 111
0 168 63 162 177 -4 67 -21 100 -71 137 -34 25 -129 32 -172 12z m156 -29 c50
-33 71 -80 66 -151 -3 -52 -7 -62 -39 -91 -71 -66 -182 -54 -236 26 -20 28
-23 44 -20 94 4 68 25 104 73 129 46 23 116 20 156 -7z"/>
<path d="M1211 1014 c-27 -22 -31 -32 -31 -75 0 -40 5 -55 25 -74 43 -44 106
-29 131 30 19 45 8 90 -28 120 -37 32 -59 31 -97 -1z m85 -9 c44 -30 35 -129
-12 -141 -63 -16 -108 38 -84 102 19 52 57 67 96 39z"/>
<path d="M1920 1099 c-42 -17 -70 -50 -70 -84 0 -55 25 -75 144 -117 53 -18
50 -32 -7 -36 -35 -2 -58 3 -84 18 -20 12 -42 19 -49 16 -20 -8 -18 -90 1
-106 9 -7 55 -15 108 -18 110 -5 150 9 173 63 26 63 -14 112 -117 141 -70 20
-80 44 -19 44 23 0 54 -7 71 -15 39 -21 49 -13 49 40 0 42 -1 44 -37 54 -47
13 -130 13 -163 0z m161 -19 c11 -6 19 -21 19 -37 0 -22 -3 -24 -22 -18 -44
14 -96 17 -117 6 -45 -24 -15 -56 76 -80 43 -12 93 -59 93 -88 0 -8 -14 -28
-31 -44 -29 -27 -37 -29 -109 -29 -107 0 -130 10 -130 55 l0 35 40 -20 c48
-24 122 -27 141 -4 21 25 -1 47 -70 71 -75 26 -101 47 -101 82 0 34 9 46 45
65 34 18 136 21 166 6z"/>
<path d="M1190 742 c-50 -40 4 -98 69 -76 35 13 41 56 9 78 -29 21 -51 20 -78
-2z m69 -16 c21 -26 -19 -69 -48 -51 -8 4 -9 48 -2 63 4 8 40 0 50 -12z"/>
<path d="M482 638 c-58 -29 -89 -150 -58 -231 26 -70 57 -92 126 -92 44 0 63
5 80 20 l22 20 -3 -85 -4 -85 55 0 55 0 -4 220 c-2 129 -7 225 -13 233 -16 18
-85 15 -96 -4 -9 -16 -11 -16 -33 0 -26 18 -92 20 -127 4z m127 -29 c25 -24
27 -24 34 2 5 17 12 20 44 17 l38 -3 3 -212 2 -213 -28 0 -29 0 -6 86 c-2 47
-7 88 -11 91 -3 3 -19 -6 -36 -21 -54 -45 -133 -26 -165 40 -20 42 -19 137 0
175 32 62 108 81 154 38z"/>
<path d="M533 565 c-13 -9 -28 -33 -34 -54 -10 -33 -9 -45 7 -77 25 -51 61
-63 112 -37 65 34 70 126 9 163 -39 24 -65 25 -94 5z m89 -22 c24 -29 29 -54
17 -90 -27 -84 -119 -62 -119 29 0 24 7 49 17 60 21 23 65 23 85 1z"/>
<path d="M805 641 c-3 -6 -6 -61 -6 -123 -2 -130 10 -167 63 -194 43 -22 121
-14 153 16 34 32 20 46 -17 15 -50 -42 -131 -30 -156 23 -18 38 -26 129 -18
196 7 53 9 56 36 56 l28 0 -1 -99 c-2 -84 1 -102 17 -120 22 -24 81 -28 107
-8 28 22 41 83 34 158 l-7 69 30 0 c18 0 32 -6 36 -16 3 -9 6 -77 6 -151 l0
-136 -41 6 c-28 4 -39 2 -36 -6 5 -17 75 -21 94 -5 13 11 14 33 8 157 -4 79
-9 150 -12 158 -6 14 -98 19 -106 6 -3 -5 -2 -37 2 -73 12 -121 -17 -181 -77
-159 -35 13 -45 53 -34 139 6 49 6 79 -1 88 -11 14 -93 17 -102 3z"/>
<path d="M1187 643 c-3 -5 -8 -74 -12 -156 -5 -111 -4 -151 5 -162 16 -20 84
-19 100 0 17 20 5 305 -13 317 -15 10 -74 10 -80 1z m73 -165 l0 -149 -27 3
-28 3 -3 144 c-3 150 1 164 39 154 18 -5 19 -17 19 -155z"/>
<path d="M1347 644 c-11 -11 -8 -112 3 -119 5 -3 23 4 38 15 17 13 40 20 56
18 25 -3 24 -5 -49 -97 -57 -72 -75 -101 -73 -120 l3 -26 156 -3 c117 -2 159
1 166 10 14 20 4 118 -14 125 -8 3 -26 -6 -41 -19 -24 -22 -102 -48 -102 -34
0 3 34 47 75 98 61 75 74 99 72 123 l-2 30 -141 3 c-77 1 -143 -1 -147 -4z
m269 -29 c4 -9 -6 -31 -22 -51 -122 -154 -132 -169 -117 -178 22 -12 101 -1
122 18 27 24 31 20 31 -29 l0 -45 -138 0 c-76 0 -142 3 -145 7 -4 3 -2 12 4
20 6 7 8 13 4 13 -6 0 58 82 93 118 21 23 43 72 37 82 -10 16 -73 11 -101 -7
l-26 -17 6 40 c3 21 5 40 6 42 0 1 54 2 120 2 98 0 122 -3 126 -15z"/>
<path d="M1712 638 c-14 -14 -16 -104 -2 -113 6 -3 23 3 39 14 16 12 43 21 60
21 l31 0 -73 -87 c-79 -94 -91 -115 -82 -144 6 -18 19 -19 165 -19 100 0 161
4 165 11 4 5 4 37 0 70 -8 67 -24 76 -62 35 -23 -24 -77 -41 -95 -30 -5 4 1
18 15 33 14 14 48 55 76 91 41 51 51 71 49 95 l-3 30 -135 3 c-97 2 -139 -1
-148 -10z m268 -27 c0 -10 -34 -61 -75 -112 -41 -52 -73 -98 -71 -104 1 -5 26
-10 54 -10 40 1 57 6 77 25 l25 23 0 -51 0 -52 -140 0 c-161 0 -162 1 -102 77
69 87 104 144 98 159 -7 19 -59 18 -98 -2 -31 -16 -31 -16 -25 8 4 12 7 31 7
41 0 15 13 17 125 17 115 0 125 -1 125 -19z"/>
<path d="M2131 633 c-54 -28 -74 -64 -79 -136 -8 -128 63 -194 197 -185 90 7
111 21 111 76 0 50 -20 64 -51 36 -27 -24 -111 -26 -134 -3 -15 14 -11 15 38
11 65 -5 110 15 133 59 21 42 12 88 -26 124 -26 25 -40 30 -93 33 -46 2 -71
-2 -96 -15z m119 -3 c10 0 32 -12 49 -26 26 -21 31 -33 31 -69 0 -36 -5 -48
-27 -65 -24 -19 -38 -21 -100 -18 -40 2 -73 0 -73 -4 0 -12 34 -41 65 -54 34
-14 94 -6 120 16 12 10 16 9 21 -3 18 -47 -22 -77 -104 -77 -67 0 -105 20
-137 70 -31 49 -32 96 -4 154 27 59 81 92 127 80 8 -2 22 -4 32 -4z"/>
<path d="M2152 560 c-45 -43 -19 -80 57 -80 30 0 44 6 55 22 20 29 20 34 -4
58 -26 26 -80 26 -108 0z m104 -22 c9 -28 -9 -42 -52 -40 -46 2 -63 16 -48 40
22 34 89 35 100 0z"/>
<path d="M2455 635 c-40 -21 -55 -43 -55 -81 0 -46 38 -79 121 -104 77 -23 87
-43 25 -48 -23 -2 -54 5 -80 17 -23 12 -47 21 -54 21 -12 0 -26 -57 -20 -86 7
-39 173 -59 243 -30 42 18 69 66 60 107 -9 38 -45 66 -114 85 -58 17 -79 29
-68 40 12 13 89 5 114 -11 30 -20 44 -10 49 33 6 53 -14 67 -108 70 -61 2 -91
-1 -113 -13z m179 -11 c10 -4 16 -18 16 -36 0 -25 -3 -29 -17 -22 -37 16 -119
16 -132 0 -21 -25 -5 -44 51 -61 87 -25 118 -49 118 -89 0 -57 -44 -86 -128
-86 -26 0 -63 5 -83 10 -30 9 -38 16 -41 41 -5 30 5 48 16 30 4 -5 30 -15 59
-21 66 -15 110 -1 105 32 -2 17 -18 28 -69 48 -81 31 -99 45 -99 79 0 54 43
81 126 81 34 0 69 -3 78 -6z"/>
</g>
</svg>
